<svg version="1.1" id="get-involved-coder-image" xmlns:x="&ns_extend;" xmlns:i="&ns_ai;" xmlns:graph="&ns_graphs;" xmlns="http://www.w3.org/2000/svg" xmlns:xlink="http://www.w3.org/1999/xlink" x="0px" y="0px" width="179.945px" height="157.948px" viewBox="329.445 218.14 179.945 157.948" enable-background="new 329.445 218.14 179.945 157.948" xml:space="preserve">

	<!-- Hexagon -->
	<path fill="#D7A900" d="M463.508,373.48l-88.178,0.006l-44.091-76.366l44.08-76.367l88.178-0.01l44.102,76.366L463.508,373.48z M382.883,360.409l73.08-0.006l36.537-63.295l-36.545-63.289l-73.082,0.009l-36.531,63.289L382.883,360.409z"/>

	<!-- Screen -->
	<rect x="407.498" y="329.15" fill="#6C7372" width="24.802" height="12.416"/>
	<path fill="#132137" d="M442.957,343.023v-0.062c0-1.631-1.322-2.953-2.953-2.953h-40.031c-1.63,0-2.952,1.322-2.952,2.953 v0.062H442.957z"/>
	<polygon opacity="0.5" fill="#231F20" points="432.301,337.142 407.498,329.411 432.301,329.411 				"/>
	<path fill="#585E5C" d="M460.275,261.839c1.83,0,3.311,1.474,3.311,3.292v60.989c0,1.816-1.48,3.291-3.311,3.291h-80.752 c-1.829,0-3.311-1.475-3.311-3.291v-60.989c0-1.818,1.482-3.292,3.311-3.292H460.275z"/>
	<path fill="#6C7372" d="M463.584,324.572c0-0.018,0.002-0.033,0.002-0.051v-60.988c0-1.818-1.48-3.292-3.311-3.292h-80.752 c-1.829,0-3.311,1.474-3.311,3.292v60.988c0,0.018,0.002,0.033,0.002,0.051H463.584z"/>
	<rect x="377.673" y="264.786" fill="#FFFFFF" width="83.853" height="58.48"/>

	<!-- Application Window -->
	<rect x="377.682" y="264.787" opacity="0.8" fill="#CFC9DF" width="83.843" height="4.578"/>
	<rect x="383.052" y="294.435" fill="#C8C7C7" width="3.561" height="3.18"/>
	<rect x="388.374" y="269.361" fill="#C8C7C7" width="1.237" height="53.906"/>
	<rect x="383.052" y="287.352" fill="#C8C7C7" width="3.561" height="3.182"/>
	<rect x="383.052" y="308.601" fill="#C8C7C7" width="3.561" height="3.18"/>
	<rect x="383.052" y="301.519" fill="#C8C7C7" width="3.561" height="3.18"/>
	<rect x="383.052" y="280.27" fill="#C8C7C7" width="3.561" height="3.18"/>
	<rect x="383.052" y="273.588" fill="#C8C7C7" width="3.561" height="3.182"/>
	<rect x="383.052" y="316.218" fill="#C8C7C7" width="3.561" height="3.18"/>

	<!-- Code -->
	<rect class="code code-2" x="442.574" y="287.352" fill="#38AD94" width="9.314" height="3.182"/>
	<rect class="code code-3" x="393.147" y="287.352" fill="#132136" width="12.404" height="3.182"/>
	<rect class="code code-1" x="407.498" y="287.352" fill="#EB9920" width="33.291" height="3.182"/>
	<rect class="code code-4" x="393.147" y="295.172" fill="#D93E2F" width="9.313" height="3.182"/>
	<rect class="code code-5" x="426.642" y="295.172" fill="#E2725D" width="15.053" height="3.182"/>
	<rect class="code code-6" x="404.86" y="295.172" fill="#EB9927" width="19.451" height="3.182"/>
	<rect class="code code-7" x="393.147" y="302.995" fill="#77B1D2" width="19.449" height="3.18"/>
	<rect class="code code-8" x="414.584" y="302.995" fill="#0F2B48" width="19.449" height="3.18"/>
	<rect class="code code-9" x="436.076" y="302.995" fill="#72C5E8" width="10.254" height="3.18"/>

	<!-- Code Blocks -->
	<polygon fill="#132137" points="400.28,312.534 398.38,310.634 395.053,313.96 395.046,313.954 393.147,315.855 393.153,315.861 393.147,315.866 395.046,317.767 395.053,317.761 398.38,321.089 400.28,319.187 396.952,315.861 					"/>
	<polygon fill="#132137" points="417.756,315.866 417.749,315.861 417.755,315.855 415.856,313.954 415.85,313.96 412.522,310.634 410.622,312.534 413.949,315.861 410.621,319.187 412.522,321.089 415.85,317.761 415.856,317.767 					"/>
	<rect x="404.203" y="310.875" transform="matrix(-0.853 -0.522 0.522 -0.853 586.4229 796.9083)" fill="#132137" width="2.496" height="9.971"/>

	<polygon fill="#132137" points="400.381,275.489 398.481,273.588 395.153,276.916 395.147,276.91 393.247,278.81 393.252,278.817 393.247,278.822 395.147,280.723 395.153,280.715 398.481,284.043 400.381,282.143 397.053,278.817 					"/>
	<polygon fill="#132137" points="419.824,278.822 419.819,278.817 419.824,278.81 417.924,276.91 417.918,276.916 414.591,273.588 412.692,275.489 416.019,278.817 412.692,282.143 414.591,284.043 417.918,280.715 417.924,280.723 					"/>
	<rect x="401.535" y="277.405" fill="#132137" width="9.85" height="2.953"/>

</svg>
