<svg version="1.1" id="get-involved-scientist-image"
	 xmlns="http://www.w3.org/2000/svg" xmlns:xlink="http://www.w3.org/1999/xlink" x="0px" y="0px" width="179.945px"
	 height="157.948px" viewBox="329.445 218.14 179.945 157.948" enable-background="new 329.445 218.14 179.945 157.948"
	 xml:space="preserve">
<switch>
	<g i:extraneous="self">
		<g>
			<!-- Hexagon -->
			<path fill="#00ADD0" d="M463.509,373.48l-88.179,0.006l-44.091-76.366l44.08-76.368l88.177-0.009l44.102,76.366L463.509,373.48z
				 M382.883,360.409l73.079-0.006l36.537-63.294l-36.545-63.29l-73.081,0.009l-36.531,63.29L382.883,360.409z"/>

			<g>
				<!-- Beaker -->
				<path class="beaker" fill="#00ADD0" d="M395.737,350.909c-4.278,0-7.759-3.553-7.759-7.92c0-1.588,0.46-3.123,1.33-4.434l21.574-32.527v-21.105
					c-1.165-0.688-1.894-1.937-1.894-3.313c0-2.121,1.727-3.848,3.848-3.848h13.477c2.238,0,4.204,1.799,4.204,3.848
					c0,1.416-0.791,2.713-2.013,3.381v21.102l22.002,32.385c0.32,0.469,0.589,0.975,0.801,1.5c0.026,0.062,0.055,0.141,0.086,0.229
					l0.168-0.166l0.209,1.564c0.054,0.273,0.082,0.498,0.09,0.688c0.02,0.23,0.029,0.465,0.029,0.697
					c0,4.174-3.119,7.582-7.156,7.896l-0.02,0.018h-0.32c-0.154,0.006-0.348,0.006-0.527,0c-9.451-0.002-18.902,0-28.352,0.002
					C408.921,350.907,402.329,350.909,395.737,350.909z M412.837,279.311c-1.268,0-2.299,1.031-2.299,2.299
					c0,0.93,0.557,1.763,1.418,2.124l0.475,0.199v22.562l-21.832,32.916c-0.701,1.057-1.072,2.295-1.072,3.578
					c0,3.514,2.787,6.371,6.211,6.371c6.592,0,13.184,0,19.776-0.002c9.455-0.002,18.911-0.006,28.366-0.002h0.029
					c0.146,0.006,0.294,0.006,0.441,0h0.019c3.35-0.131,5.973-2.926,5.973-6.367c0-0.188-0.009-0.377-0.024-0.564l-0.077-0.578
					c-0.104-0.512-0.28-1.08-0.365-1.283c-0.174-0.432-0.391-0.838-0.647-1.215l-22.272-32.779v-22.614l0.505-0.187
					c0.902-0.334,1.508-1.202,1.508-2.159c0-1.295-1.428-2.299-2.654-2.299H412.837z"/>
				<path class="liquid" fill-rule="evenodd" clip-rule="evenodd" fill="#00ADD0" d="M393.708,346.105c-0.037,0.002-0.074,0.004-0.111,0.004
					c-1.5,0-2.717-1.129-2.717-2.521c0-0.438,0.121-0.85,0.333-1.209l0,0l0.002-0.004c0.03-0.051,0.063-0.102,0.099-0.152
					l14.746-22.936l27.236-0.018c4.349,6.744,11.522,16.51,14.98,23.234v0.002l0,0c0.168,0.328,0.262,0.695,0.262,1.082
					c0,1.393-1.215,2.521-2.716,2.521l-52.114-0.002V346.105L393.708,346.105z"/>

				<!-- Bubbles -->
				<path class="bubble" fill-rule="evenodd" clip-rule="evenodd" fill="#CCE6FF" d="M415.585,269.825c1.428,0,2.584,1.158,2.584,2.586
					c0,1.427-1.156,2.584-2.584,2.584s-2.586-1.157-2.586-2.584C412.999,270.983,414.157,269.825,415.585,269.825L415.585,269.825z"
					/>
				<path class="bubble" fill-rule="evenodd" clip-rule="evenodd" fill="#CCE6FF" d="M423.356,309.165c1.428,0,2.586,1.158,2.586,2.586
					s-1.158,2.584-2.586,2.584s-2.584-1.156-2.584-2.584S421.928,309.165,423.356,309.165L423.356,309.165z"/>
				<path class="bubble" fill-rule="evenodd" clip-rule="evenodd" fill="#CCE6FF" d="M426.184,263.104c1.561,0,2.826,1.265,2.826,2.826
					c0,1.562-1.266,2.827-2.826,2.827c-1.562,0-2.828-1.265-2.828-2.827C423.356,264.368,424.623,263.104,426.184,263.104
					L426.184,263.104z"/>
				<path class="bubble" fill-rule="evenodd" clip-rule="evenodd" fill="#CCE6FF" d="M419.71,295.458c1.561,0,2.826,1.266,2.826,2.829
					c0,1.561-1.266,2.826-2.826,2.826c-1.562,0-2.828-1.266-2.828-2.826C416.882,296.723,418.147,295.458,419.71,295.458
					L419.71,295.458z"/>
				<path class="bubble" fill-rule="evenodd" clip-rule="evenodd" fill="#356586" d="M419.991,265.465c1.055,0,1.91,0.854,1.91,1.909
					c0,1.054-0.855,1.909-1.91,1.909c-1.054,0-1.908-0.855-1.908-1.909C418.083,266.319,418.937,265.465,419.991,265.465
					L419.991,265.465z"/>
				<path class="bubble" fill-rule="evenodd" clip-rule="evenodd" fill="#91B6D1" d="M423.046,271.375c0.604,0,1.092,0.487,1.092,1.091
					c0,0.602-0.488,1.09-1.092,1.09c-0.602,0-1.088-0.488-1.088-1.09C421.958,271.862,422.444,271.375,423.046,271.375
					L423.046,271.375z"/>
				<path class="bubble" fill-rule="evenodd" clip-rule="evenodd" fill="#91B6D1" d="M424.137,286.292c0.602,0,1.09,0.488,1.09,1.09
					c0,0.604-0.488,1.09-1.09,1.09c-0.604,0-1.092-0.486-1.092-1.09C423.046,286.78,423.534,286.292,424.137,286.292
					L424.137,286.292z"/>
				<path class="bubble" fill-rule="evenodd" clip-rule="evenodd" fill="#FFFFFF" d="M418.701,324.544c0.995,0,1.803,0.807,1.803,1.803
					s-0.808,1.803-1.803,1.803c-0.996,0-1.804-0.807-1.804-1.803S417.705,324.544,418.701,324.544L418.701,324.544z"/>
				<path class="bubble" fill-rule="evenodd" clip-rule="evenodd" fill="#083D51" d="M428.487,319.323c1.92,0,3.477,1.557,3.477,3.477
					s-1.557,3.477-3.477,3.477s-3.477-1.557-3.477-3.477S426.567,319.323,428.487,319.323L428.487,319.323z"/>
				<path class="bubble" fill-rule="evenodd" clip-rule="evenodd" fill="#107BA3" d="M424.492,328.468c1.448,0,2.622,1.174,2.622,2.621
					c0,1.449-1.174,2.623-2.622,2.623s-2.622-1.174-2.622-2.623C421.87,329.642,423.044,328.468,424.492,328.468L424.492,328.468z"
					/>
				<path class="bubble" fill-rule="evenodd" clip-rule="evenodd" fill="#FFFFFF" d="M419.599,337.657c0.724,0,1.312,0.586,1.312,1.311
					c0,0.723-0.588,1.311-1.312,1.311s-1.312-0.588-1.312-1.311C418.288,338.243,418.876,337.657,419.599,337.657L419.599,337.657z"
					/>
				<path class="bubble" fill-rule="evenodd" clip-rule="evenodd" fill="#FFFFFF" d="M425.778,343.704c0.362,0,0.656,0.295,0.656,0.658
					c0,0.361-0.294,0.656-0.656,0.656c-0.363,0-0.657-0.295-0.657-0.656C425.121,343.999,425.415,343.704,425.778,343.704
					L425.778,343.704z"/>
				<path class="bubble" fill-rule="evenodd" clip-rule="evenodd" fill="#107BA3" d="M417.635,331.058c0.918,0,1.662,0.744,1.662,1.662
					s-0.744,1.662-1.662,1.662s-1.662-0.744-1.662-1.662S416.718,331.058,417.635,331.058L417.635,331.058z"/>
				<path class="bubble" fill-rule="evenodd" clip-rule="evenodd" fill="#CCEFFC" d="M417.061,319.611c0.645,0,1.168,0.521,1.168,1.168
					c0,0.645-0.523,1.168-1.168,1.168c-0.646,0-1.168-0.523-1.168-1.168C415.893,320.132,416.416,319.611,417.061,319.611
					L417.061,319.611z"/>
				<path class="bubble" fill-rule="evenodd" clip-rule="evenodd" fill="#244359" d="M422.85,259.258c0.894,0,1.618,0.725,1.618,1.618
					c0,0.894-0.725,1.619-1.618,1.619c-0.895,0-1.619-0.725-1.619-1.619C421.231,259.982,421.956,259.258,422.85,259.258
					L422.85,259.258z"/>
				<path class="bubble" fill-rule="evenodd" clip-rule="evenodd" fill="#0D4B86" d="M423.28,276.052c0.302,0,0.545,0.244,0.545,0.545
					c0,0.302-0.243,0.545-0.545,0.545c-0.301,0-0.544-0.243-0.544-0.545C422.736,276.296,422.979,276.052,423.28,276.052
					L423.28,276.052z"/>
				<path class="bubble" fill-rule="evenodd" clip-rule="evenodd" fill="#004280" d="M414.19,264.567c0.363,0,0.658,0.294,0.658,0.658
					s-0.295,0.658-0.658,0.658s-0.658-0.294-0.658-0.658S413.827,264.567,414.19,264.567L414.19,264.567z"/>
				<circle class="bubble" fill-rule="evenodd" clip-rule="evenodd" fill="#406580" cx="422.2" cy="252.375" r="4.151"/>
				<circle class="bubble" fill-rule="evenodd" clip-rule="evenodd" fill="#406580" cx="416.653" cy="246.526" r="1.321"/>
				<circle class="bubble" fill-rule="evenodd" clip-rule="evenodd" fill="#CCEAFF" cx="413.012" cy="259.685" r="3.49"/>
			</g>
		</g>
	</g>
</switch>
</svg>
