
<svg version="1.1" id="get-involved-user-image" xmlns:x="&ns_extend;" xmlns:i="&ns_ai;" xmlns:graph="&ns_graphs;"
 xmlns="http://www.w3.org/2000/svg" xmlns:xlink="http://www.w3.org/1999/xlink" x="0px" y="0px" width="179.945px"
 height="157.948px" viewBox="329.445 218.14 179.945 157.948" enable-background="new 329.445 218.14 179.945 157.948"
 xml:space="preserve">

	<!-- Hexagon -->
	<path fill="#8F8DCB" d="M463.509,373.48l-88.179,0.006l-44.091-76.366l44.08-76.367l88.177-0.01l44.102,76.367L463.509,373.48z
	 M382.883,360.409l73.079-0.006l36.537-63.293l-36.545-63.29l-73.081,0.009l-36.531,63.29L382.883,360.409z"/>

	<!-- Woman - hair down -->
	<path fill-rule="evenodd" clip-rule="evenodd" fill="#9CA299" d="M443.403,284.802c-3.39,0-6.314-1.521-7.678-3.722l-5.447,2.4
		c-2.166,0.955-4.925,3.058-4.925,5.715v1.725c0,0.889,0.729,1.617,1.617,1.617h32.865c0.889,0,1.617-0.729,1.617-1.617v-1.725
		c0-2.657-2.758-4.76-4.925-5.715l-5.447-2.4C449.719,283.281,446.793,284.802,443.403,284.802L443.403,284.802z M442.42,267.227
		h1.967c0.006-0.479,0.203-0.912,0.517-1.227c0.38-0.379,0.866-0.522,1.38-0.522h1.783c-3.233-1.346-5.896-3.64-6.943-5.092
		c-4.562,0.395-4.311,3.61-6.577,5.058c-0.392,0.25-0.988,0.4-1.313,0.699c-0.669,0.613-0.787,1.996-0.758,2.854
		c0.049,1.342,0.523,2.795,1.568,3.672c0.346,0.291,0.729,0.419,1.15,0.566c0.087,0.309,0.169,0.619,0.274,0.922
		c2.43,7.027,13.218,7.206,15.849,0.227c0.143-0.381,0.249-0.771,0.36-1.162c0.28-0.091,0.571-0.168,0.829-0.314
		c0.829-0.473,1.37-1.504,1.631-2.376c0.381-1.265,0.425-2.862-0.249-4.002c-0.662,0.055-1.326,0.04-1.983-0.03
		c0.132,0.279,0.171,0.571,0.171,0.871v0.844c0,0.79-0.264,1.534-0.832,2.104c-0.568,0.568-1.312,0.836-2.101,0.836h-2.014
		c-0.738,0-1.437-0.234-1.972-0.771c-0.45-0.449-0.738-1.062-0.769-1.737h-1.971c-0.029,0.676-0.318,1.288-0.768,1.737
		c-0.541,0.541-1.242,0.771-1.984,0.771h-1.997c-0.79,0-1.536-0.267-2.104-0.836c-0.587-0.588-0.834-1.346-0.834-2.15v-0.831
		c0-0.498,0.161-0.975,0.523-1.337c0.383-0.383,0.864-0.521,1.384-0.521l3.841,0.003

		C441.473,265.481,442.406,266.114,442.42,267.227L442.42,267.227z
    
    M431.201,266.052c-0.015-0.761-0.061-1.987,0.101-2.928
		c0.257-1.499,0.758-2.94,1.512-4.259c1.597-2.79,4.199-4.892,7.289-5.768c2.688-0.762,5.601-0.543,8.138,0.611
		c3.855,1.751,6.672,5.504,7.222,9.989c0.018,0.142,0.087,1.539,0.123,2.199c0.768,1.531,0.765,3.514,0.273,5.146
		c-0.121,0.402-0.279,0.804-0.476,1.188c0.294,2.955,0.643,5.457,0.862,7.363c-1.418,0.34-5.908,0.589-7.55,0.427
		c-3.09,1.677-7.065,1.716-10.21,0.144c-0.024-0.012-0.303-0.157-0.302-0.156c-1.635,0.162-6.139-0.087-7.558-0.426
		c0.218-1.902,0.564-4.395,0.859-7.34c-0.501-0.98-0.762-2.096-0.801-3.183C430.648,268.083,430.783,266.985,431.201,266.052

    L431.201,266.052z

    M440.444,266.895h-3.807c-0.146,0-0.269-0.015-0.387,0.104c-0.104,0.104-0.103,0.21-0.103,0.336v0.831
		c0,0.432,0.088,0.824,0.417,1.154c0.31,0.309,0.69,0.415,1.104,0.415h2.028c0.359,0,0.686-0.085,0.956-0.355
		c0.279-0.279,0.353-0.612,0.353-0.978v-1.016C441.006,266.981,440.81,266.895,440.444,266.895L440.444,266.895z M446.3,266.895
		h3.927c0.124,0,0.227,0.002,0.329,0.104c0.104,0.104,0.103,0.21,0.103,0.336v0.831c0,0.432-0.088,0.824-0.417,1.154
		c-0.31,0.31-0.697,0.415-1.115,0.415h-1.999c-0.366,0-0.696-0.078-0.974-0.355c-0.273-0.272-0.353-0.601-0.353-0.96v-1.033
		C445.801,266.979,445.989,266.895,446.3,266.895L446.3,266.895z"/>

  <!-- Man - no moustache -->
	<path fill="#9CA299" d="M434.908,324.062c0.086,0.307,0.168,0.613,0.271,0.914c2.383,6.914,12.853,7.207,15.71,0.588
		c0.212-0.494,0.354-1.002,0.502-1.516c1.081-0.354,1.732-0.959,2.215-2.029c0.093-0.207,0.176-0.428,0.246-0.66
		c0.417-1.387,0.493-3.402-0.563-4.418c-0.52,0.141-0.592,1.178-0.949,1.395c-0.436,0.264-0.733-0.174-0.854-0.523
		c-0.205-0.598-0.249-1.83-0.382-2.195c-0.251-0.682-1.038-1.541-1.163-2.389c-0.134-0.904-0.16-1.002-0.508-1.5
		c-0.341-0.492-0.828-0.725-1.872-0.367c-1.227,0.418-2.82,0.627-4.415,0.627c-1.594,0-3.188-0.209-4.415-0.627
		c-1.044-0.357-1.531-0.125-1.873,0.367c-0.347,0.498-0.372,0.596-0.506,1.5c-0.126,0.848-0.913,1.707-1.163,2.389
		c-0.134,0.365-0.178,1.598-0.384,2.195c-0.119,0.35-0.417,0.787-0.852,0.523c-0.359-0.217-0.432-1.262-0.956-1.396
		c-0.705,0.648-0.842,1.941-0.808,2.885c0.05,1.342,0.521,2.793,1.566,3.672C434.116,323.796,434.481,323.913,434.908,324.062
		L434.908,324.062z M443.052,335.245c-3.482,0-6.475-1.605-7.786-3.902l-6.303,2.523c-2.336,0.936-5.287,3.164-5.287,5.975v0.908
		v0.729c0,0.922,0.754,1.678,1.678,1.678c11.799,0,23.597,0,35.396,0c0.922,0,1.677-0.756,1.677-1.678v-0.729v-0.908
		c0-2.811-2.95-5.039-5.287-5.975l-6.303-2.523C449.525,333.64,446.533,335.245,443.052,335.245L443.052,335.245z
		 M444.123,302.462c0.98-0.555,1.778-1.191,2.154-2.113c0.631,1.014,0.819,2.033,0.682,2.977c5.62,1.225,7.45,5.348,8.088,10.766
		c0.017,0.139,0.018,1.469,0.023,2.227c0.989,1.578,1.041,3.768,0.504,5.553c-0.094,0.311-0.205,0.605-0.331,0.885
		c-0.573,1.271-1.462,2.199-2.378,2.66c-2.785,9.029-16.685,8.902-19.435,0c-0.297-0.148-0.572-0.338-0.825-0.549
		c-1.437-1.209-2.142-3.135-2.206-4.98c-0.044-1.217,0.174-2.504,0.823-3.549c0.027-3.369,0.425-6.932,2.561-9.705
		c0.604-0.783,1.341-1.484,2.165-2.027c2.683-1.77,6.548-2.623,7.672-5.197C444.129,300.458,444.265,301.497,444.123,302.462
		L444.123,302.462z"/>

	<!-- Man - moustache -->
	<g>
		<!-- Head -->
		<path fill-rule="evenodd" clip-rule="evenodd" fill="#9CA299" d="
			M392.548,283.372c-0.43,0-0.777,0.189-1.025,0.467
			c-0.322,0.357-0.396,0.775-0.306,1.242l0.415,2.164c0.072,0.373,0.294,0.674,0.614,0.813l-1.187,3.526l-4.587-10.367
			l-9.13,3.268c-1.989,0.876-3.984,2.816-3.984,5.148v0.906v0.729c0,0.922,0.756,1.677,1.678,1.677h38.896
			c0.923,0,1.678-0.755,1.678-1.677v-0.729v-0.906c0-2.332-1.996-4.272-3.984-5.148l-9.13-3.268l-4.587,10.367l-1.187-3.526
			c0.32-0.14,0.542-0.44,0.613-0.813l0.416-2.164c0.089-0.467,0.016-0.885-0.306-1.242c-0.248-0.277-0.597-0.467-1.026-0.467

			H392.548L392.548,283.372z

			M404.463,288.661h4.566c0.389,0,0.706,0.317,0.706,0.705v0.354c0,0.387-0.317,0.705-0.706,0.705
			h-4.566c-0.388,0-0.705-0.318-0.705-0.705v-0.354C403.758,288.978,404.075,288.661,404.463,288.661L404.463,288.661z

			M382.344,262.094c0.611-3.843,2.623-7.71,6.836-8.656c1.476-0.697,3.077-1.095,4.706-1.193
			c3.851-0.231,7.76,1.226,10.263,4.163c0.822,0.963,1.459,2.055,1.896,3.25c0.663,1.812,0.865,3.819,0.626,5.752
			c-0.029,0.236-0.044,0.48-0.089,0.71c0.932,1.808,0.836,4.269-0.002,6.131c-0.573,1.271-1.462,2.198-2.378,2.659
			c-2.785,9.03-16.685,8.902-19.435,0c-1.985-0.992-2.955-3.42-3.031-5.529c-0.035-0.974,0.097-2.025,0.496-2.939

			C382.114,264.982,382.112,263.553,382.344,262.094L382.344,262.094z

			M405.084,267.135c-0.452-0.07-0.894-0.273-1.274-0.52
			c-0.722-0.469-1.194-1.192-1.623-1.922c-0.36-0.614-0.684-1.166-1.502-1.342c-3.75-0.803-5.347-1.547-6.501-2.087
			c-0.942-0.438-1.552-0.724-3.038-0.755c-3.025-0.065-3.781,2.15-4.372,3.879c-0.248,0.729-0.537,1.863-1.223,2.335
			c-0.399,0.276-1.034,0.349-1.687,0.358c-0.301,0.685-0.359,1.602-0.337,2.234c0.068,1.913,0.88,3.595,2.719,4.238
			c0.229,0.821,0.492,1.605,0.93,2.346c3.414,5.787,13.419,5.246,15.421-1.895v-0.003l0.001-0.003l0.131-0.459
			c1.081-0.354,1.731-0.959,2.215-2.029

			C405.54,270.185,405.677,268.483,405.084,267.135L405.084,267.135z

			M383.769,265.432
			c0.346-0.002,0.702-0.009,0.823-0.027c0.23-0.313,0.428-0.891,0.647-1.535c0.758-2.221,1.729-5.066,5.937-4.977
			c1.829,0.041,2.561,0.382,3.69,0.908c1.079,0.504,2.569,1.199,6.153,1.967c1.515,0.325,2.01,1.169,2.561,2.107
			c0.37,0.633,0.761,1.274,1.455,1.568c0.255-1.754,0.092-3.588-0.512-5.235c-0.494-1.353-1.292-2.541-2.342-3.524
			c-2.157-2.021-5.194-3.006-8.201-2.824c-1.285,0.076-2.565,0.371-3.751,0.879c-0.175,0.074-0.348,0.158-0.52,0.24
			c-0.315,0.066-0.625,0.146-0.929,0.257c-2.911,1.053-4.359,4.085-4.841,7.111C383.779,263.366,383.719,264.403,383.769,265.432

			L383.769,265.432z

			.

			C390.146,276.134,389.126,275.866,388.051,275.462L388.051,275.462z

			"/>

		<!-- Moustache -->
		<path class="moustache" fill-rule="evenodd" clip-rule="evenodd" fill="#9CA299" d="
			M390.538,274.721c1.205,0.039,2.402-0.406,3.297-1.219c0.226-0.204,0.434-0.428,0.647-0.644
			c0.456,0.457,0.889,0.904,1.451,1.23c0.745,0.433,1.614,0.662,2.521,0.628c0.328-0.012,0.66-0.059,0.979-0.139
			c-0.222-0.883-0.648-1.582-1.384-2.121c-0.958-0.701-2.257-1.051-3.566-1.051c-1.593,0-3.404,0.529-4.391,1.863
			c-0.25,0.404-0.439,0.848-0.558,1.309C389.861,274.661,390.201,274.71,390.538,274.721L390.538,274.721z

			M388.051,275.462
			c0.107-0.795,0.244-1.547,0.592-2.283c0.35-0.742,0.811-1.285,1.495-1.785c1.193-0.873,2.774-1.311,4.345-1.311
			c1.571,0,3.152,0.438,4.347,1.311c0.953,0.697,1.499,1.535,1.829,2.668c0.138,0.469,0.192,0.916,0.259,1.399
			c-0.863,0.329-1.681,0.579-2.615,0.583c-1.086,0.004-2.128-0.287-3.03-0.812c-0.277-0.161-0.54-0.345-0.788-0.547
			c-0.891,0.729-1.987,1.2-3.163,1.324
			"/>
	</g>


	<!-- Woman - hair up -->
	<path fill-rule="evenodd" clip-rule="evenodd" fill="#9CA299" d="M393.675,335.406c-3.39,0-6.315-1.521-7.678-3.721
		l-5.447,2.398c-2.167,0.957-4.925,3.059-4.925,5.715v1.023v0.703c0,0.889,0.728,1.617,1.617,1.617h32.864
		c0.89,0,1.617-0.729,1.617-1.617v-0.703v-1.023c0-2.656-2.757-4.758-4.924-5.715l-5.447-2.398
		C399.99,333.884,397.063,335.406,393.675,335.406L393.675,335.406z M387.099,316.31h3.553c1.187,0,2.17,0.91,2.291,2.066h1.533
		c0.12-1.156,1.104-2.066,2.291-2.066h2.15c-3.492-1.299-6.415-3.781-7.524-5.32c-4.865,0.422-4.256,4.051-7.065,5.322
		l-0.013,0.006l-0.003,0.002c-0.275,0.119-0.585,0.221-0.809,0.428c-0.67,0.613-0.789,1.994-0.758,2.854
		c0.048,1.342,0.522,2.795,1.566,3.672c0.347,0.291,0.73,0.418,1.152,0.566c0.086,0.309,0.169,0.619,0.273,0.922
		c2.431,7.027,13.219,7.205,15.849,0.227c0.144-0.381,0.249-0.771,0.361-1.162c1.333-0.438,2.05-1.322,2.46-2.691
		c0.381-1.264,0.425-2.863-0.25-4.002c-0.708,0.059-1.416,0.039-2.117-0.045c0.362,0.408,0.583,0.943,0.583,1.527v0.529
		c0,4.395-6.078,4.994-7.742,1.803c-0.074-0.143-0.129-0.281-0.233-0.406c-0.49-0.588-1.44-0.574-1.907,0.045
		c-0.082,0.107-0.134,0.225-0.193,0.342c-1.649,3.213-7.752,2.621-7.752-1.783v-0.529
		C384.796,317.347,385.833,316.31,387.099,316.31L387.099,316.31z M396.593,317.857h3.914c0.324,0,0.589,0.268,0.589,0.588v0.938
		c0,2.686-5.092,2.688-5.092,0v-0.938C396.004,318.122,396.268,317.857,396.593,317.857L396.593,317.857z M386.924,317.857h3.915
		c0.323,0,0.589,0.268,0.589,0.588v0.938c0,2.686-5.092,2.688-5.092,0v-0.938C386.336,318.122,386.6,317.857,386.924,317.857
		L386.924,317.857z M393.711,298.253c4.271,0,7.736,3.463,7.736,7.736c0,0.205-0.007,0.203,0.145,0.34
		c2.226,1.99,3.752,4.799,4.142,7.973c0.017,0.143,0.087,1.539,0.123,2.199c0.768,1.531,0.764,3.514,0.273,5.146
		c-0.432,1.432-1.341,2.855-2.709,3.543c-2.785,9.031-16.685,8.902-19.435,0.002c-0.297-0.148-0.571-0.336-0.825-0.551
		c-1.438-1.207-2.14-3.133-2.206-4.979c-0.035-0.977,0.1-2.074,0.518-3.008c-0.015-0.76-0.061-1.986,0.101-2.928
		c0.258-1.498,0.758-2.939,1.511-4.258c0.732-1.279,1.676-2.414,2.781-3.352c0.156-0.133,0.105-0.164,0.111-0.383
		C386.111,301.581,389.522,298.253,393.711,298.253L393.711,298.253z"/>

</svg>
