<?xml version="1.0" encoding="utf-8"?>
<!-- Generator: Adobe Illustrator 18.0.0, SVG Export Plug-In . SVG Version: 6.00 Build 0)  -->
<!DOCTYPE svg PUBLIC "-//W3C//DTD SVG 1.1//EN" "http://www.w3.org/Graphics/SVG/1.1/DTD/svg11.dtd">
<svg version="1.1" id="Layer_1" xmlns="http://www.w3.org/2000/svg" xmlns:xlink="http://www.w3.org/1999/xlink" x="0px" y="0px"
	 viewBox="0 0 557.1 97.5" enable-background="new 0 0 557.1 97.5" xml:space="preserve">
<g>
	<path fill="#FFFFFF" d="M94.3,75.8c0.3,0,0.7,0.1,0.9,0.3c0.3,0.3,0.5,0.9,0.5,1.7V78h-3.2c0-0.8,0.2-1.5,0.6-1.8
		C93.4,75.9,93.7,75.8,94.3,75.8 M96.8,75.1c-0.7-0.7-1.5-1-2.5-1c-2.7,0-4.6,2-4.6,5c0,3.1,2,5.4,4.7,5.4c2,0,3.6-1.2,3.6-1.2
		l-0.8-1.6c0,0-1,0.9-2.4,0.9c-0.7,0-1.2-0.3-1.7-0.7c-0.4-0.6-0.7-1.2-0.7-2.1H98C98,79.7,98.4,76.7,96.8,75.1 M38.3,75.8
		c0.4,0,0.7,0.1,0.9,0.3c0.3,0.3,0.5,0.9,0.5,1.7V78h-3.1c0-0.8,0.2-1.5,0.5-1.8C37.4,75.9,37.7,75.8,38.3,75.8 M40.8,75.1
		c-0.7-0.7-1.5-1-2.5-1c-2.7,0-4.6,2-4.6,5c0,3.1,2,5.4,4.7,5.4c2,0,3.6-1.2,3.6-1.2l-0.8-1.6c0,0-1,0.9-2.4,0.9
		c-0.7,0-1.2-0.3-1.7-0.7c-0.5-0.6-0.7-1.2-0.7-2.1H42C42,79.7,42.4,76.7,40.8,75.1 M58.7,72.4c2.5,0,3.3,2.6,3.3,4.7
		c0,1.2-0.2,5.1-3.3,5.1c-3.2,0-3.4-3.8-3.4-5.1C55.3,75,56.2,72.4,58.7,72.4 M58.7,70.3c-3.5,0-6.2,2.9-6.2,6.9
		c0,4.3,2.6,7.3,6.2,7.3c3.6,0,6.2-3,6.2-7.3C64.8,73.2,62.1,70.3,58.7,70.3 M87.2,82.3c-1.6,0-2.6-1.3-2.6-3.2c0-2.1,1.4-3,2.6-3
		c0.9,0,1.7,0.4,1.7,0.4l-0.6-2.2c0,0-0.7-0.2-1.3-0.2c-3.3,0-5.1,2.6-5.1,5.2c0,1.8,1.1,5.2,4.9,5.2c1.5,0,2.6-0.9,2.6-0.9
		l-0.6-1.7C88.9,81.7,88.2,82.3,87.2,82.3 M47.5,82.6c-0.7,0-1-0.8-1-2.1V76h2.3l-0.4-1.7h-1.8v-2.3h-2.6v2.3h-1.5l0.3,1.7h1.1v5.2
		c0,2.1,0.9,3.3,2.8,3.3c1.5,0,2.5-0.7,2.5-0.7l-0.4-1.6C48.8,82.2,48.2,82.6,47.5,82.6 M25.3,79.7c0-0.2-2.7-9.6-2.7-9.6h-3.4
		l-1.4,14.1h2.6l0.8-9.8h0.1l2.7,9.8h2.5l2.7-9.8h0.1l0.8,9.8h2.6l-1.2-14.1H28C28,70.2,25.4,79.5,25.3,79.7 M72.8,74.3h-3.4v-0.8
		c0-1.1,0.8-1.3,1-1.3c0.7-0.1,1.1,0.2,1.1,0.2l-0.4-1.9c0,0-0.5-0.1-1.1-0.1c-1.5,0-3,1.1-3,3.5v0.5h-1.5l0.3,1.7H67v8.1h2.5V76
		h3.3v8.1h2.6V76H78v8.1h2.6v-9.8h-5.3v-0.8c0-1.1,0.8-1.3,1-1.3c0.7-0.1,1.1,0.2,1.1,0.2L77,70.5c0,0-0.5-0.1-1.1-0.1
		c-1.5,0-3,1.1-3,3.5V74.3z"/>
	<path fill="#FFFFFF" d="M33.8,30.8c-5.4,1.2-10.6-0.4-16-2.2v-3.3c2.7,0.6,5.6,0.7,8.4,0.1c11.1-2.5,20-17.7,36.3-10.4
		c15.5,6.8,33.2,0.6,35.4-0.2v7.5c-7.1,1.5-18,2.4-28-1.9C53.7,13.1,44.8,28.4,33.8,30.8 M47.9,40.5c11-2.4,19.9-17.7,36.2-10.4
		c4.6,2,9.4,2.9,13.9,3.2v-5.7c-6.4,0.6-14.2,0.3-21.4-2.9c-16.4-7.2-25.2,8-36.2,10.5c-7.5,1.7-14.7-2.3-22.6-4.5v4.3
		C29,35.3,38.1,42.8,47.9,40.5 M59.5,50.2c11-2.4,20-17.7,36.3-10.5c0.7,0.4,1.4,0.6,2.2,0.9V37c-3.3-0.5-6.5-1.3-9.7-2.7
		C72,27,63,42.3,52,44.7c-10.8,2.5-20.7-6.8-33.7-5.4h-0.5v7.8c2.4-1.2,5.1-2.1,7.9-2.4C38.8,43.3,48.7,52.6,59.5,50.2 M63.6,53.7
		c-10.8,2.4-20.7-6.9-33.8-5.5c-4.3,0.4-8.2,2.4-12,5v11.5c3.2-3.6,9.7-9.6,19.5-10.4c13.1-1.1,23,8,33.9,5.5
		c8.7-1.9,16.1-11.8,26.9-12.4v-5C82.9,37.3,74.2,51.4,63.6,53.7"/>
</g>
<path fill="#FFFFFF" d="M130.8,81.7h5v-35h-5V44h13.5v2.7h-5.1v35h5.1v2.7h-13.5V81.7z"/>
<path fill="#FFFFFF" d="M146.3,81.7h5.2V58.8h-5.2v-2.6h8.2v4.3c3.7-3,7.5-4.8,10.7-4.8c2.9,0,5.5,1.4,6.6,3.4c0.8,1.4,1,2.3,1,5.2
	v17.3h6.9v2.6h-14.9v-2.6h5V64.6c0-4.2-1.4-6-4.6-6c-3.2,0-7.2,2-10.5,5.1v18.1h4.6v2.6h-12.8V81.7z"/>
<path fill="#FFFFFF" d="M178.8,81.7h4.3V58.8h-4.3v-2.6h4.3v-3.6c0-1.9,0.2-3.8,0.5-4.9c0.8-2.6,3.4-4.5,6.4-4.5
	c3.4,0,5.9,2.1,6.7,5.6l-2.8,0.4C193.2,47,192,46,190,46c-3,0-3.8,1.4-3.8,6.9v3.4h5.6v2.6h-5.6v22.9h5.6v2.6h-13V81.7z"/>
<path fill="#FFFFFF" d="M226.4,81.7h5.3V58.8h-5.3v-2.6h8.4v6.8h0.1c2-5,5.9-7.3,12.2-7.3c0.2,0,0.4,0,0.7,0.1v3h-0.5l-0.7-0.1h-0.3
	c-3.9,0-7.5,1.3-9.4,3.4c-1.6,1.8-2.1,3.9-2.1,7.8v11.7h5.8v2.6h-14.2V81.7z"/>
<path fill="#FFFFFF" d="M252.1,81.7h4.9V58.8h-4.9v-2.6h8v4.3c3.4-3.1,7.1-4.8,10.5-4.8c3.6,0,6.2,1.8,7.1,5c3.4-3.1,7.6-5,11-5
	c2.9,0,5.4,1.4,6.4,3.4c0.6,1.2,0.9,2.7,0.9,4.9v17.5h4.5v2.6h-12.4v-2.6h4.8v-18c0-3.4-1.5-5.1-4.6-5.1c-2.2,0-4.1,0.7-6.6,2.2
	c-1.7,1.1-2.3,1.5-3.7,2.9v18h4.7v2.6h-12.6v-2.6h4.9V64.4c0-4-1.4-5.8-4.6-5.8c-2.2,0.1-4.5,0.8-6.7,2.2c-1.4,1-1.9,1.3-3.7,2.9v18
	h4.7v2.6h-12.7V81.7z"/>
<path fill="#FFFFFF" d="M323.3,80.3c-3.5,3-7,4.5-10.5,4.5c-4.8,0-8.5-3.7-8.5-8.3c0-5.1,4.3-8.7,10.3-8.7c2.9,0,5.5,0.7,8.6,2.3V64
	c0-4.3-2.4-6.3-7.5-6.3c-4.4,0-7.1,1.5-8.7,4.8l-2.4-0.6c2.2-4.5,5.6-6.4,11.3-6.4c7.1,0,10.3,2.7,10.3,8.9v17.4h4.6v2.6h-7.6V80.3z
	 M323.3,72.6c-3.2-1.8-5.4-2.5-8-2.5c-4.6,0-7.8,2.7-7.8,6.5c0,3.3,2.6,5.8,6.2,5.8c3.3,0,7.3-2,9.6-4.7V72.6z"/>
<path fill="#FFFFFF" d="M331.7,58.8v-2.6h5v-6.4l3.1-2.4v8.8h5.9v2.6h-5.9V77c0,4.5,0.4,5.3,2.7,5.3c0.8,0,1.8-0.2,3.2-0.5v2.6
	c-1.7,0.5-2.7,0.7-3.9,0.7c-3.9,0-5.1-1.5-5.1-6.9V58.8H331.7z"/>
<polygon fill="#FFFFFF" points="348.4,81.7 353.3,81.7 353.3,58.8 348.4,58.8 348.4,56.3 356.4,56.3 356.4,81.7 361.2,81.7 
	361.2,84.3 348.4,84.3 "/>
<path fill="#FFFFFF" d="M390.4,76.7c-2.1,5.3-6.7,8.4-12.2,8.4c-8.1,0-13.9-6.1-13.9-14.6c0-8.4,5.8-14.8,13.4-14.8
	c3.9,0,7,1.4,9,4.1h0.1v-3.6h2.6v10.6h-2.6c-0.3-5.1-3.7-8.4-9-8.4c-6.2,0-10.5,4.9-10.5,11.8c0,7.2,4.3,12.1,10.7,12.1
	c4.5,0,7.8-2.3,9.8-6.8L390.4,76.7z"/>
<path fill="#FFFFFF" d="M393.9,74.6h2.7c0,4.6,3.6,7.7,8.7,7.7c4.6,0,7.8-2.3,7.8-5.6c0-3.1-1.8-4.3-7.8-5.4c-3.9-0.7-5-1.1-6.5-2
	c-2.2-1.2-3.4-3.3-3.4-5.7c0-4.4,3.9-7.8,8.9-7.8c3.3,0,5.9,1.2,7.7,3.7h0.1v-3.2h2.6v9.2h-2.6c-0.1-4.1-3.3-7.1-7.7-7.1
	c-3.5,0-6.1,2.2-6.1,5.2c0,2.7,1.8,3.9,7.8,5c3.1,0.5,5,1.1,6.4,1.8c2.2,1.2,3.6,3.6,3.6,6.2c0,5-4.2,8.2-10.7,8.2
	c-4,0-6.8-1.2-8.6-3.9h-0.1v3.5h-2.7V74.6z"/>
<path fill="#FFFFFF" d="M434.3,81.7h5.5v-35h-5.5V44h14.5v2.7h-5.4v35H460V68.3h3.2v16h-28.9V81.7z"/>
<path fill="#FFFFFF" d="M486,80.3c-3.5,3-7,4.5-10.5,4.5c-4.8,0-8.5-3.7-8.5-8.3c0-5.1,4.3-8.7,10.3-8.7c2.9,0,5.5,0.7,8.6,2.3V64
	c0-4.3-2.4-6.3-7.5-6.3c-4.4,0-7.1,1.5-8.7,4.8l-2.4-0.6c2.2-4.5,5.6-6.4,11.3-6.4c7.1,0,10.3,2.7,10.3,8.9v17.4h4.6v2.6H486V80.3z
	 M486,72.6c-3.2-1.8-5.3-2.5-8-2.5c-4.6,0-7.8,2.7-7.8,6.5c0,3.3,2.6,5.8,6.2,5.8c3.3,0,7.3-2,9.6-4.7V72.6z"/>
<path fill="#FFFFFF" d="M493.3,81.7h6.9V46.6h-5.1V44h8.1v18h0.1c2.4-4.2,6.4-6.5,11.1-6.5c8,0,13.8,6,13.8,14.4
	c0,8.7-5.8,14.9-13.9,14.9c-4.7,0-8.4-2-11-5.9h-0.1v5.5h-9.9V81.7z M503.2,70c0,7.3,4.5,12.2,11.1,12.2c6.4,0,10.9-5.1,10.9-12.4
	c0-7-4.4-11.8-10.8-11.8c-6.1,0-10.8,4.7-11.2,11.2V70z"/>
<g>
	<radialGradient id="SVGID_1_" cx="209.6654" cy="69.9447" r="21.0923" gradientUnits="userSpaceOnUse">
		<stop  offset="0.5365" style="stop-color:#CCFF33"/>
		<stop  offset="0.59" style="stop-color:#CCFF33;stop-opacity:0.881"/>
		<stop  offset="0.9862" style="stop-color:#CCFF33;stop-opacity:0"/>
	</radialGradient>
	<path fill="url(#SVGID_1_)" d="M220.9,89.5h-22.5l-11.3-19.5l11.3-19.5h22.5l11.3,19.5L220.9,89.5z M203.4,81.3h12.6l6.3-10.9
		l-6.3-10.9h-12.6l-6.3,10.9L203.4,81.3z"/>
	<path fill="none" stroke="#D3FA41" stroke-width="2.3843" stroke-miterlimit="10" d="M216.8,82.6h-14.1l-7.1-12.2l7.1-12.2h14.1
		l7.1,12.2L216.8,82.6z"/>
	<path fill="none" stroke="#F6FDDD" stroke-width="0.9537" stroke-miterlimit="10" d="M216.8,82.6h-14.1l-7.1-12.2l7.1-12.2h14.1
		l7.1,12.2L216.8,82.6z"/>
</g>
</svg>
