<?xml version="1.0" encoding="utf-8"?>
<!DOCTYPE svg PUBLIC "-//W3C//DTD SVG 1.1//EN" "http://www.w3.org/Graphics/SVG/1.1/DTD/svg11.dtd">
<svg version="1.1" id="logo" xmlns="http://www.w3.org/2000/svg" xmlns:xlink="http://www.w3.org/1999/xlink" x="0px" y="0px" width="106px" height="20px" viewBox="0 0 106 20" enable-background="new 0 0 106 20" xml:space="preserve">
	<path id="met_office" fill="#FFF" d="M101.8,5.8c0.3,0,0.6,0.1,0.8,0.3c0.3,0.3,0.4,0.8,0.4,1.5v0.2h-2.8c0-0.7,0.2-1.3,0.5-1.6 C101,5.9,101.3,5.8,101.8,5.8 M104,5.2c-0.6-0.6-1.3-0.9-2.2-0.9c-2.4,0-4.1,1.8-4.1,4.4c0,2.8,1.8,4.8,4.2,4.8 c1.8,0,3.2-1.1,3.2-1.1l-0.7-1.4c0,0-0.9,0.8-2.1,0.8c-0.6,0-1.1-0.3-1.5-0.6c-0.4-0.5-0.6-1.1-0.6-1.9h4.9 C105.1,9.3,105.4,6.6,104,5.2 M51.7,5.8c0.3,0,0.6,0.1,0.8,0.3c0.3,0.3,0.4,0.8,0.4,1.5v0.2h-2.8c0-0.7,0.2-1.3,0.5-1.6 C50.9,5.9,51.2,5.8,51.7,5.8 M53.9,5.2c-0.6-0.6-1.3-0.9-2.2-0.9c-2.4,0-4.1,1.8-4.1,4.4c0,2.8,1.8,4.8,4.2,4.8 c1.8,0,3.2-1.1,3.2-1.1L54.3,11c0,0-0.9,0.8-2.1,0.8c-0.6,0-1.1-0.3-1.5-0.6c-0.4-0.5-0.6-1.1-0.6-1.9H55C55,9.3,55.3,6.6,53.9,5.2 M69.9,2.7c2.2,0,2.9,2.3,2.9,4.2c0,1.1-0.2,4.5-2.9,4.5c-2.8,0-3-3.4-3-4.5C66.9,5.1,67.7,2.7,69.9,2.7 M69.9,0.8 c-3.1,0-5.5,2.6-5.5,6.1c0,3.8,2.3,6.5,5.5,6.5c3.2,0,5.5-2.7,5.5-6.5C75.4,3.5,73,0.8,69.9,0.8 M95.5,11.6c-1.4,0-2.3-1.2-2.3-2.9 c0-1.9,1.2-2.7,2.3-2.7C96.3,6,97,6.4,97,6.4l-0.5-2c0,0-0.6-0.2-1.2-0.2c-2.9,0-4.5,2.3-4.5,4.6c0,1.6,1,4.6,4.4,4.6 c1.3,0,2.3-0.8,2.3-0.8L97,11.1C97,11.1,96.4,11.6,95.5,11.6 M59.9,11.9c-0.6,0-0.9-0.7-0.9-1.9V6h2l-0.4-1.5H59v-2h-2.3v2h-1.3 L55.7,6h1v4.6c0,1.9,0.8,2.9,2.5,2.9c1.3,0,2.2-0.6,2.2-0.6l-0.4-1.4C61.1,11.5,60.6,11.9,59.9,11.9 M40,9.3c0-0.2-2.4-8.5-2.4-8.5 h-3l-1.2,12.6h2.3l0.7-8.8h0.1l2.4,8.8h2.2l2.4-8.8h0.1l0.7,8.8h2.3L45.6,0.7h-3.1C42.5,0.7,40.1,9.1,40,9.3 M82.6,4.5h-3V3.7 c0-1,0.7-1.2,0.9-1.2c0.6-0.1,1,0.2,1,0.2L81.1,1c0,0-0.4-0.1-1-0.1c-1.3,0-2.7,1-2.7,3.1v0.4H76L76.4,6h1v7.2h2.2V6h2.9v7.2h2.3V6 h2.4v7.2h2.3V4.5h-4.7V3.7c0-1,0.7-1.2,0.9-1.2c0.6-0.1,1,0.2,1,0.2L86.3,1c0,0-0.4-0.1-1-0.1c-1.3,0-2.7,1-2.7,3.1L82.6,4.5 L82.6,4.5z"/>
	<path id="flag" fill="#B9DB0C" d="M6.2,6.9C4.1,7.3,2.1,6.7,0,6V4.7C1.1,5,2.2,5,3.3,4.8c4.3-1,7.7-6.9,14.1-4 c6,2.6,12.9,0.2,13.7-0.1v2.9c-2.8,0.6-7,0.9-10.8-0.7C13.9,0,10.4,5.9,6.2,6.9 M11.6,10.6c4.3-0.9,7.7-6.9,14-4 c1.8,0.8,3.6,1.1,5.4,1.2V5.6c-2.5,0.2-5.5,0.1-8.3-1.1c-6.3-2.8-9.8,3.1-14,4.1C5.8,9.2,3.1,7.6,0,6.8v1.7 C4.3,8.6,7.8,11.5,11.6,10.6 M16.1,14.4c4.3-0.9,7.7-6.9,14.1-4.1c0.3,0.2,0.6,0.2,0.9,0.4V9.3c-1.3-0.2-2.5-0.5-3.7-1.1 c-6.3-2.8-9.8,3.1-14.1,4c-4.2,1-8-2.6-13-2.1H0v3c0.9-0.5,2-0.8,3.1-0.9C8.1,11.7,11.9,15.3,16.1,14.4 M17.7,15.7 c-4.2,0.9-8-2.7-13.1-2.1C3,13.8,1.5,14.6,0,15.5V20c1.2-1.4,3.7-3.7,7.5-4c5.1-0.4,8.9,3.1,13.1,2.1c3.4-0.8,6.2-4.6,10.4-4.8v-1.9 C25.2,9.4,21.8,14.8,17.7,15.7"/>
</svg>
